<?xml version="1.0" encoding="us-ascii" standalone="no"?><svg xmlns="http://www.w3.org/2000/svg" xmlns:xlink="http://www.w3.org/1999/xlink" contentStyleType="text/css" height="531px" preserveAspectRatio="none" style="width:1041px;height:531px;background:#FFFFFF;" version="1.1" viewBox="0 0 1041 531" width="1041px" zoomAndPan="magnify"><defs/><g><line style="stroke:#181818;stroke-width:0.5;stroke-dasharray:5.0,5.0;" x1="33" x2="33" y1="84.0679" y2="448.4221"/><line style="stroke:#181818;stroke-width:0.5;stroke-dasharray:5.0,5.0;" x1="343.5" x2="343.5" y1="84.0679" y2="448.4221"/><line style="stroke:#181818;stroke-width:0.5;stroke-dasharray:5.0,5.0;" x1="659.5" x2="659.5" y1="84.0679" y2="448.4221"/><text fill="#000000" font-family="sans-serif" font-size="14" lengthAdjust="spacing" textLength="50" x="5" y="79.9659">Gegner</text><ellipse cx="33" cy="13.5" fill="#E2E2F0" rx="8" ry="8" style="stroke:#181818;stroke-width:0.5;"/><path d="M33,21.5 L33,48.5 M20,29.5 L46,29.5 M33,48.5 L20,63.5 M33,48.5 L46,63.5 " fill="none" style="stroke:#181818;stroke-width:0.5;"/><text fill="#000000" font-family="sans-serif" font-size="14" lengthAdjust="spacing" textLength="50" x="5" y="462.388">Gegner</text><ellipse cx="33" cy="474.99" fill="#E2E2F0" rx="8" ry="8" style="stroke:#181818;stroke-width:0.5;"/><path d="M33,482.99 L33,509.99 M20,490.99 L46,490.99 M33,509.99 L20,524.99 M33,509.99 L46,524.99 " fill="none" style="stroke:#181818;stroke-width:0.5;"/><rect fill="#E2E2F0" height="33.0679" rx="2.5" ry="2.5" style="stroke:#181818;stroke-width:0.5;" width="57" x="315.5" y="50"/><text fill="#000000" font-family="sans-serif" font-size="14" lengthAdjust="spacing" textLength="43" x="322.5" y="71.9659">Server</text><rect fill="#E2E2F0" height="33.0679" rx="2.5" ry="2.5" style="stroke:#181818;stroke-width:0.5;" width="57" x="315.5" y="447.4221"/><text fill="#000000" font-family="sans-serif" font-size="14" lengthAdjust="spacing" textLength="43" x="322.5" y="469.388">Server</text><text fill="#000000" font-family="sans-serif" font-size="14" lengthAdjust="spacing" textLength="39" x="637.5" y="79.9659">Client</text><ellipse cx="660" cy="13.5" fill="#E2E2F0" rx="8" ry="8" style="stroke:#181818;stroke-width:0.5;"/><path d="M660,21.5 L660,48.5 M647,29.5 L673,29.5 M660,48.5 L647,63.5 M660,48.5 L673,63.5 " fill="none" style="stroke:#181818;stroke-width:0.5;"/><text fill="#000000" font-family="sans-serif" font-size="14" lengthAdjust="spacing" textLength="39" x="637.5" y="462.388">Client</text><ellipse cx="660" cy="474.99" fill="#E2E2F0" rx="8" ry="8" style="stroke:#181818;stroke-width:0.5;"/><path d="M660,482.99 L660,509.99 M647,490.99 L673,490.99 M660,509.99 L647,524.99 M660,509.99 L673,524.99 " fill="none" style="stroke:#181818;stroke-width:0.5;"/><rect fill="#EEEEEE" height="3" style="stroke:#EEEEEE;stroke-width:1.0;" width="1034" x="0" y="115.9209"/><line style="stroke:#000000;stroke-width:1.0;" x1="0" x2="1034" y1="115.9209" y2="115.9209"/><line style="stroke:#000000;stroke-width:1.0;" x1="0" x2="1034" y1="118.9209" y2="118.9209"/><rect fill="#EEEEEE" height="25.706" style="stroke:#000000;stroke-width:2.0;" width="179" x="427.5" y="104.0679"/><text fill="#000000" font-family="sans-serif" font-size="13" font-weight="bold" lengthAdjust="spacing" textLength="162" x="433.5" y="121.9649">Gegner tritt ins Sichtfeld</text><polygon fill="#181818" points="332,159.4799,342,163.4799,332,167.4799,336,163.4799" style="stroke:#181818;stroke-width:1.0;"/><line style="stroke:#181818;stroke-width:1.0;" x1="33" x2="338" y1="163.4799" y2="163.4799"/><text fill="#000000" font-family="sans-serif" font-size="13" font-weight="bold" lengthAdjust="spacing" textLength="7" x="40" y="157.6709">1</text><text fill="#000000" font-family="sans-serif" font-size="13" lengthAdjust="spacing" textLength="276" x="51" y="157.6709">Bewegungsdaten senden (H&#228;lfte Gegner Ping)</text><path d="M349,176.4799 L349,203.4799 L621,203.4799 L621,186.4799 L611,176.4799 L349,176.4799 " fill="#FEFFDD" style="stroke:#181818;stroke-width:0.5;"/><path d="M611,176.4799 L611,186.4799 L621,186.4799 L611,176.4799 " fill="#FEFFDD" style="stroke:#181818;stroke-width:0.5;"/><text fill="#000000" font-family="sans-serif" font-size="13" lengthAdjust="spacing" textLength="251" x="355" y="195.377">Server erh&#228;lt Info, dass Gegner sichtbar ist</text><polygon fill="#181818" points="648,228.892,658,232.892,648,236.892,652,232.892" style="stroke:#181818;stroke-width:1.0;"/><line style="stroke:#181818;stroke-width:1.0;" x1="344" x2="654" y1="232.892" y2="232.892"/><text fill="#000000" font-family="sans-serif" font-size="13" font-weight="bold" lengthAdjust="spacing" textLength="7" x="351" y="227.083">2</text><text fill="#000000" font-family="sans-serif" font-size="13" lengthAdjust="spacing" textLength="281" x="362" y="227.083">Sichtbarkeitsupdate senden (H&#228;lfte Client Ping)</text><path d="M665,245.892 L665,272.892 L1029,272.892 L1029,255.892 L1019,245.892 L665,245.892 " fill="#FEFFDD" style="stroke:#181818;stroke-width:0.5;"/><path d="M1019,245.892 L1019,255.892 L1029,255.892 L1019,245.892 " fill="#FEFFDD" style="stroke:#181818;stroke-width:0.5;"/><text fill="#000000" font-family="sans-serif" font-size="13" lengthAdjust="spacing" textLength="343" x="671" y="264.789">Client interpoliert Bewegung, zeigt Gegner im Sichtfeld an</text><rect fill="#EEEEEE" height="3" style="stroke:#EEEEEE;stroke-width:1.0;" width="1034" x="0" y="300.451"/><line style="stroke:#000000;stroke-width:1.0;" x1="0" x2="1034" y1="300.451" y2="300.451"/><line style="stroke:#000000;stroke-width:1.0;" x1="0" x2="1034" y1="303.451" y2="303.451"/><rect fill="#EEEEEE" height="25.706" style="stroke:#000000;stroke-width:2.0;" width="107" x="463.5" y="288.598"/><text fill="#000000" font-family="sans-serif" font-size="13" font-weight="bold" lengthAdjust="spacing" textLength="90" x="469.5" y="306.495">Spieler feuert</text><polygon fill="#181818" points="355,344.01,345,348.01,355,352.01,351,348.01" style="stroke:#181818;stroke-width:1.0;"/><line style="stroke:#181818;stroke-width:1.0;" x1="349" x2="659" y1="348.01" y2="348.01"/><text fill="#000000" font-family="sans-serif" font-size="13" font-weight="bold" lengthAdjust="spacing" textLength="7" x="361" y="342.201">3</text><text fill="#000000" font-family="sans-serif" font-size="13" lengthAdjust="spacing" textLength="258" x="372" y="342.201">Feuereingabe senden (H&#228;lfte meines Pings)</text><path d="M349,361.01 L349,388.01 L793,388.01 L793,371.01 L783,361.01 L349,361.01 " fill="#FEFFDD" style="stroke:#181818;stroke-width:0.5;"/><path d="M783,361.01 L783,371.01 L793,371.01 L783,361.01 " fill="#FEFFDD" style="stroke:#181818;stroke-width:0.5;"/><text fill="#000000" font-family="sans-serif" font-size="13" lengthAdjust="spacing" textLength="423" x="355" y="379.907">Server pr&#252;ft r&#252;ckwirkend, ob Gegner sichtbar war &#8594; Lag Compensation</text><line style="stroke:#181818;stroke-width:1.0;" x1="344" x2="386" y1="417.4221" y2="417.4221"/><line style="stroke:#181818;stroke-width:1.0;" x1="386" x2="386" y1="417.4221" y2="430.4221"/><line style="stroke:#181818;stroke-width:1.0;" x1="345" x2="386" y1="430.4221" y2="430.4221"/><polygon fill="#181818" points="355,426.4221,345,430.4221,355,434.4221,351,430.4221" style="stroke:#181818;stroke-width:1.0;"/><text fill="#000000" font-family="sans-serif" font-size="13" font-weight="bold" lengthAdjust="spacing" textLength="7" x="351" y="411.6131">4</text><text fill="#000000" font-family="sans-serif" font-size="13" lengthAdjust="spacing" textLength="111" x="362" y="411.6131">Treffer registrieren</text><!--SRC=[TP1BJiGm38RtEOKrAv262o2L1PLuI2oGoWNIribOj4xbk8p40JW0P-0OxEOcd0HtfaKZ1XP95B_-pxyVDV7OroZE-KQJm2r6jj_WHQcXmRF2ga9vGLc1pr3DPQko8sJTnqhdYc9k11LI1M8hfMQZ0RiMYiBDsOihgE0Ihd6BSUIOMw_8a95RUyxkTXzTK5n6FHB7SyV98a9nev22wHzW06LZrGht7D8QMf_pqfOdtTeBK5Pdas6Qu5mrYPScNitvPoJDup0Xd10SjlkJe7HpabXHXcGVqP-Drl2A57LXeVx81iz7EEPODH1sLXHmd4QOI-LYqCqKGbFtzIbSRmdCUxZyhp-3x3w3WjtDyvPiMMxNaEeJaxPsljxUuS57A5C_86UlbFYtSnFLas08rYmOpLknnP7TDm00]--></g></svg>