<?xml version="1.0" encoding="us-ascii" standalone="no"?><svg xmlns="http://www.w3.org/2000/svg" xmlns:xlink="http://www.w3.org/1999/xlink" contentStyleType="text/css" height="832px" preserveAspectRatio="none" style="width:975px;height:832px;background:#FFFFFF;" version="1.1" viewBox="0 0 975 832" width="975px" zoomAndPan="magnify"><defs/><g><rect fill="none" height="199.218" style="stroke:#000000;stroke-width:1.5;" width="873.5" x="85" y="377.01"/><rect fill="none" height="85.118" style="stroke:#000000;stroke-width:1.5;" width="455" x="95" y="435.4221"/><rect fill="none" height="51.412" style="stroke:#000000;stroke-width:1.5;" width="863.5" x="95" y="680.6401"/><line style="stroke:#181818;stroke-width:0.5;stroke-dasharray:5.0,5.0;" x1="28" x2="28" y1="84.0679" y2="749.0521"/><line style="stroke:#181818;stroke-width:0.5;stroke-dasharray:5.0,5.0;" x1="131" x2="131" y1="84.0679" y2="749.0521"/><line style="stroke:#181818;stroke-width:0.5;stroke-dasharray:5.0,5.0;" x1="511" x2="511" y1="84.0679" y2="749.0521"/><line style="stroke:#181818;stroke-width:0.5;stroke-dasharray:5.0,5.0;" x1="919.5" x2="919.5" y1="84.0679" y2="749.0521"/><text fill="#000000" font-family="sans-serif" font-size="14" lengthAdjust="spacing" textLength="41" x="5" y="79.9659">Player</text><ellipse cx="28.5" cy="13.5" fill="#E2E2F0" rx="8" ry="8" style="stroke:#181818;stroke-width:0.5;"/><path d="M28.5,21.5 L28.5,48.5 M15.5,29.5 L41.5,29.5 M28.5,48.5 L15.5,63.5 M28.5,48.5 L41.5,63.5 " fill="none" style="stroke:#181818;stroke-width:0.5;"/><text fill="#000000" font-family="sans-serif" font-size="14" lengthAdjust="spacing" textLength="41" x="5" y="763.018">Player</text><ellipse cx="28.5" cy="775.62" fill="#E2E2F0" rx="8" ry="8" style="stroke:#181818;stroke-width:0.5;"/><path d="M28.5,783.62 L28.5,810.62 M15.5,791.62 L41.5,791.62 M28.5,810.62 L15.5,825.62 M28.5,810.62 L41.5,825.62 " fill="none" style="stroke:#181818;stroke-width:0.5;"/><rect fill="#E2E2F0" height="33.0679" rx="2.5" ry="2.5" style="stroke:#181818;stroke-width:0.5;" width="53" x="105" y="50"/><text fill="#000000" font-family="sans-serif" font-size="14" lengthAdjust="spacing" textLength="39" x="112" y="71.9659">Client</text><rect fill="#E2E2F0" height="33.0679" rx="2.5" ry="2.5" style="stroke:#181818;stroke-width:0.5;" width="53" x="105" y="748.0521"/><text fill="#000000" font-family="sans-serif" font-size="14" lengthAdjust="spacing" textLength="39" x="112" y="770.018">Client</text><rect fill="#E2E2F0" height="33.0679" rx="2.5" ry="2.5" style="stroke:#181818;stroke-width:0.5;" width="57" x="483" y="50"/><text fill="#000000" font-family="sans-serif" font-size="14" lengthAdjust="spacing" textLength="43" x="490" y="71.9659">Server</text><rect fill="#E2E2F0" height="33.0679" rx="2.5" ry="2.5" style="stroke:#181818;stroke-width:0.5;" width="57" x="483" y="748.0521"/><text fill="#000000" font-family="sans-serif" font-size="14" lengthAdjust="spacing" textLength="43" x="490" y="770.018">Server</text><rect fill="#E2E2F0" height="33.0679" rx="2.5" ry="2.5" style="stroke:#181818;stroke-width:0.5;" width="58" x="890.5" y="50"/><text fill="#000000" font-family="sans-serif" font-size="14" lengthAdjust="spacing" textLength="44" x="897.5" y="71.9659">Target</text><rect fill="#E2E2F0" height="33.0679" rx="2.5" ry="2.5" style="stroke:#181818;stroke-width:0.5;" width="58" x="890.5" y="748.0521"/><text fill="#000000" font-family="sans-serif" font-size="14" lengthAdjust="spacing" textLength="44" x="897.5" y="770.018">Target</text><rect fill="#EEEEEE" height="3" style="stroke:#EEEEEE;stroke-width:1.0;" width="968.5" x="0" y="115.9209"/><line style="stroke:#000000;stroke-width:1.0;" x1="0" x2="968.5" y1="115.9209" y2="115.9209"/><line style="stroke:#000000;stroke-width:1.0;" x1="0" x2="968.5" y1="118.9209" y2="118.9209"/><rect fill="#EEEEEE" height="25.706" style="stroke:#000000;stroke-width:2.0;" width="109" x="429.75" y="104.0679"/><text fill="#000000" font-family="sans-serif" font-size="13" font-weight="bold" lengthAdjust="spacing" textLength="92" x="435.75" y="121.9649">Schussabgabe</text><polygon fill="#181818" points="119.5,159.4799,129.5,163.4799,119.5,167.4799,123.5,163.4799" style="stroke:#181818;stroke-width:1.0;"/><line style="stroke:#181818;stroke-width:1.0;" x1="28.5" x2="125.5" y1="163.4799" y2="163.4799"/><text fill="#000000" font-family="sans-serif" font-size="13" lengthAdjust="spacing" textLength="79" x="35.5" y="157.6709">Klickt "Feuer"</text><line style="stroke:#181818;stroke-width:1.0;" x1="131.5" x2="173.5" y1="195.186" y2="195.186"/><line style="stroke:#181818;stroke-width:1.0;" x1="173.5" x2="173.5" y1="195.186" y2="208.186"/><line style="stroke:#181818;stroke-width:1.0;" x1="132.5" x2="173.5" y1="208.186" y2="208.186"/><polygon fill="#181818" points="142.5,204.186,132.5,208.186,142.5,212.186,138.5,208.186" style="stroke:#181818;stroke-width:1.0;"/><text fill="#000000" font-family="sans-serif" font-size="13" lengthAdjust="spacing" textLength="144" x="138.5" y="189.377">Raycast (lokal, Sichtlinie)</text><polygon fill="#181818" points="499.5,235.892,509.5,239.892,499.5,243.892,503.5,239.892" style="stroke:#181818;stroke-width:1.0;"/><line style="stroke:#181818;stroke-width:1.0;" x1="131.5" x2="505.5" y1="239.892" y2="239.892"/><text fill="#000000" font-family="sans-serif" font-size="13" lengthAdjust="spacing" textLength="356" x="138.5" y="234.083">ShootServerRpc(origin, direction, targetId, clientTimeOffset)</text><rect fill="#EEEEEE" height="3" style="stroke:#EEEEEE;stroke-width:1.0;" width="968.5" x="0" y="269.745"/><line style="stroke:#000000;stroke-width:1.0;" x1="0" x2="968.5" y1="269.745" y2="269.745"/><line style="stroke:#000000;stroke-width:1.0;" x1="0" x2="968.5" y1="272.745" y2="272.745"/><rect fill="#EEEEEE" height="25.706" style="stroke:#000000;stroke-width:2.0;" width="195" x="386.75" y="257.892"/><text fill="#000000" font-family="sans-serif" font-size="13" font-weight="bold" lengthAdjust="spacing" textLength="178" x="392.75" y="275.789">Lag Compensation Pr&#252;fung</text><polygon fill="#181818" points="907.5,313.304,917.5,317.304,907.5,321.304,911.5,317.304" style="stroke:#181818;stroke-width:1.0;"/><line style="stroke:#181818;stroke-width:1.0;" x1="511.5" x2="913.5" y1="317.304" y2="317.304"/><text fill="#000000" font-family="sans-serif" font-size="13" lengthAdjust="spacing" textLength="384" x="518.5" y="311.495">(optional) Setze Position auf rewoundPos (bei lagCompensation)</text><line style="stroke:#181818;stroke-width:1.0;" x1="511.5" x2="553.5" y1="349.01" y2="349.01"/><line style="stroke:#181818;stroke-width:1.0;" x1="553.5" x2="553.5" y1="349.01" y2="362.01"/><line style="stroke:#181818;stroke-width:1.0;" x1="512.5" x2="553.5" y1="362.01" y2="362.01"/><polygon fill="#181818" points="522.5,358.01,512.5,362.01,522.5,366.01,518.5,362.01" style="stroke:#181818;stroke-width:1.0;"/><text fill="#000000" font-family="sans-serif" font-size="13" lengthAdjust="spacing" textLength="254" x="518.5" y="343.201">Pr&#252;fe Treffer auf rewound/current Position</text><path d="M85,377.01 L148,377.01 L148,386.716 L138,396.716 L85,396.716 L85,377.01 " fill="#EEEEEE" style="stroke:#000000;stroke-width:1.5;"/><rect fill="none" height="199.218" style="stroke:#000000;stroke-width:1.5;" width="873.5" x="85" y="377.01"/><text fill="#000000" font-family="sans-serif" font-size="13" font-weight="bold" lengthAdjust="spacing" textLength="18" x="100" y="391.907">alt</text><text fill="#000000" font-family="sans-serif" font-size="11" font-weight="bold" lengthAdjust="spacing" textLength="94" x="163" y="390.7689">[Treffer erkannt]</text><polygon fill="#181818" points="907.5,416.4221,917.5,420.4221,907.5,424.4221,911.5,420.4221" style="stroke:#181818;stroke-width:1.0;"/><line style="stroke:#181818;stroke-width:1.0;" x1="511.5" x2="913.5" y1="420.4221" y2="420.4221"/><text fill="#000000" font-family="sans-serif" font-size="13" lengthAdjust="spacing" textLength="112" x="518.5" y="414.6131">Damage() aufrufen</text><path d="M95,435.4221 L158,435.4221 L158,445.1281 L148,455.1281 L95,455.1281 L95,435.4221 " fill="#EEEEEE" style="stroke:#000000;stroke-width:1.5;"/><rect fill="none" height="85.118" style="stroke:#000000;stroke-width:1.5;" width="455" x="95" y="435.4221"/><text fill="#000000" font-family="sans-serif" font-size="13" font-weight="bold" lengthAdjust="spacing" textLength="18" x="110" y="450.3191">alt</text><text fill="#000000" font-family="sans-serif" font-size="11" font-weight="bold" lengthAdjust="spacing" textLength="159" x="173" y="449.181">[LagCompensation aktiviert]</text><polygon fill="#181818" points="142.5,474.8341,132.5,478.8341,142.5,482.8341,138.5,478.8341" style="stroke:#181818;stroke-width:1.0;"/><line style="stroke:#181818;stroke-width:1.0;" x1="136.5" x2="510.5" y1="478.8341" y2="478.8341"/><text fill="#000000" font-family="sans-serif" font-size="13" lengthAdjust="spacing" textLength="237" x="148.5" y="473.0251">ConfirmLagCompHitClientRpc(targetId)</text><line style="stroke:#000000;stroke-width:1.0;stroke-dasharray:2.0,2.0;" x1="95" x2="550" y1="487.8341" y2="487.8341"/><polygon fill="#181818" points="142.5,508.5401,132.5,512.5401,142.5,516.5401,138.5,512.5401" style="stroke:#181818;stroke-width:1.0;"/><line style="stroke:#181818;stroke-width:1.0;" x1="136.5" x2="510.5" y1="512.5401" y2="512.5401"/><text fill="#000000" font-family="sans-serif" font-size="13" lengthAdjust="spacing" textLength="130" x="148.5" y="506.7311">ConfirmHitClientRpc()</text><line style="stroke:#000000;stroke-width:1.0;stroke-dasharray:2.0,2.0;" x1="85" x2="958.5" y1="528.5401" y2="528.5401"/><text fill="#000000" font-family="sans-serif" font-size="11" font-weight="bold" lengthAdjust="spacing" textLength="73" x="90" y="540.299">[Kein Treffer]</text><polygon fill="#181818" points="142.5,564.228,132.5,568.228,142.5,572.228,138.5,568.228" style="stroke:#181818;stroke-width:1.0;"/><line style="stroke:#181818;stroke-width:1.0;" x1="136.5" x2="510.5" y1="568.228" y2="568.228"/><text fill="#000000" font-family="sans-serif" font-size="13" lengthAdjust="spacing" textLength="82" x="148.5" y="562.419">(keine Aktion)</text><rect fill="#EEEEEE" height="3" style="stroke:#EEEEEE;stroke-width:1.0;" width="968.5" x="0" y="605.081"/><line style="stroke:#000000;stroke-width:1.0;" x1="0" x2="968.5" y1="605.081" y2="605.081"/><line style="stroke:#000000;stroke-width:1.0;" x1="0" x2="968.5" y1="608.081" y2="608.081"/><rect fill="#EEEEEE" height="25.706" style="stroke:#000000;stroke-width:2.0;" width="177" x="395.75" y="593.228"/><text fill="#000000" font-family="sans-serif" font-size="13" font-weight="bold" lengthAdjust="spacing" textLength="160" x="401.75" y="611.125">Visualisierung auf Client</text><line style="stroke:#181818;stroke-width:1.0;" x1="131.5" x2="173.5" y1="652.6401" y2="652.6401"/><line style="stroke:#181818;stroke-width:1.0;" x1="173.5" x2="173.5" y1="652.6401" y2="665.6401"/><line style="stroke:#181818;stroke-width:1.0;" x1="132.5" x2="173.5" y1="665.6401" y2="665.6401"/><polygon fill="#181818" points="142.5,661.6401,132.5,665.6401,142.5,669.6401,138.5,665.6401" style="stroke:#181818;stroke-width:1.0;"/><text fill="#000000" font-family="sans-serif" font-size="13" lengthAdjust="spacing" textLength="187" x="138.5" y="646.831">Hitmarker und Sound anzeigen</text><path d="M95,680.6401 L158,680.6401 L158,690.3461 L148,700.3461 L95,700.3461 L95,680.6401 " fill="#EEEEEE" style="stroke:#000000;stroke-width:1.5;"/><rect fill="none" height="51.412" style="stroke:#000000;stroke-width:1.5;" width="863.5" x="95" y="680.6401"/><text fill="#000000" font-family="sans-serif" font-size="13" font-weight="bold" lengthAdjust="spacing" textLength="18" x="110" y="695.5371">alt</text><text fill="#000000" font-family="sans-serif" font-size="11" font-weight="bold" lengthAdjust="spacing" textLength="159" x="173" y="694.399">[LagCompensation aktiviert]</text><polygon fill="#181818" points="907.5,720.0521,917.5,724.0521,907.5,728.0521,911.5,724.0521" style="stroke:#181818;stroke-width:1.0;"/><line style="stroke:#181818;stroke-width:1.0;" x1="131.5" x2="913.5" y1="724.0521" y2="724.0521"/><text fill="#000000" font-family="sans-serif" font-size="13" lengthAdjust="spacing" textLength="270" x="138.5" y="718.2431">Renderer kurzfristig einf&#228;rben (FlashHitColor)</text><!--SRC=[ZLB1Yjim4BthAuOzsP3IUo65ahAqx49377gVA2Dbi2oPaRnbyptzZDxsnohPJkgKNTgSdF5xRzvxOzGf26mTFfEe7YMnvXvzWerZykbcr90y_ONQerXAIgtNqEZJ42CUB1u8rckb9b5uzt7MWW_mu5Yt2UxkQI2vK_DyYTZXiyQOe7AXHRU2XlKfEVPCzG8-ESdmvXH2clxjUbq5OSj-1KSMqeb3VaoZmw_75UYHlkUElXaJATMZxKUqi0bTJpvYOS1MNdwPmTinmxmehvoIvfLLw0iENPrjf3F1DaGUcJWO4FeH1d_CCwWEnE3GBjNhXU8rnBYHO2zaJ1uiPDxhGQHalknG2bsw8abQzFb8a7-lEFsC7Lggwg8eWo4_0el0uwqhm3Rn4vDCKhTorzDiWZSitSpzmcbwKtg_b5oFV7AH_aFeHc5c-gCgR7WWzfUOwWsPgiqWWa_jL6pXbeD-vpYWuvZZb2kMDcTAEUWhdrpsqQ6qMJqt3atf7T2VYMrkxDzj_L6y5h_BNaYoO3l8sGZ7n1QoMVFoKmxaeRft64ybVt119kk_0G00]--></g></svg>