<?xml version="1.0" encoding="us-ascii" standalone="no"?><svg xmlns="http://www.w3.org/2000/svg" xmlns:xlink="http://www.w3.org/1999/xlink" contentStyleType="text/css" height="611px" preserveAspectRatio="none" style="width:436px;height:611px;background:#FFFFFF;" version="1.1" viewBox="0 0 436 611" width="436px" zoomAndPan="magnify"><defs/><g><line style="stroke:#181818;stroke-width:0.5;stroke-dasharray:5.0,5.0;" x1="31" x2="31" y1="39.0679" y2="573.5401"/><line style="stroke:#181818;stroke-width:0.5;stroke-dasharray:5.0,5.0;" x1="286" x2="286" y1="39.0679" y2="573.5401"/><rect fill="#E2E2F0" height="33.0679" rx="2.5" ry="2.5" style="stroke:#181818;stroke-width:0.5;" width="53" x="5" y="5"/><text fill="#000000" font-family="sans-serif" font-size="14" lengthAdjust="spacing" textLength="39" x="12" y="26.9659">Client</text><rect fill="#E2E2F0" height="33.0679" rx="2.5" ry="2.5" style="stroke:#181818;stroke-width:0.5;" width="53" x="5" y="572.5401"/><text fill="#000000" font-family="sans-serif" font-size="14" lengthAdjust="spacing" textLength="39" x="12" y="594.5061">Client</text><rect fill="#E2E2F0" height="33.0679" rx="2.5" ry="2.5" style="stroke:#181818;stroke-width:0.5;" width="57" x="258" y="5"/><text fill="#000000" font-family="sans-serif" font-size="14" lengthAdjust="spacing" textLength="43" x="265" y="26.9659">Server</text><rect fill="#E2E2F0" height="33.0679" rx="2.5" ry="2.5" style="stroke:#181818;stroke-width:0.5;" width="57" x="258" y="572.5401"/><text fill="#000000" font-family="sans-serif" font-size="14" lengthAdjust="spacing" textLength="43" x="265" y="594.5061">Server</text><rect fill="#EEEEEE" height="3" style="stroke:#EEEEEE;stroke-width:1.0;" width="429.5" x="0" y="70.9209"/><line style="stroke:#000000;stroke-width:1.0;" x1="0" x2="429.5" y1="70.9209" y2="70.9209"/><line style="stroke:#000000;stroke-width:1.0;" x1="0" x2="429.5" y1="73.9209" y2="73.9209"/><rect fill="#EEEEEE" height="25.706" style="stroke:#000000;stroke-width:2.0;" width="96" x="166.75" y="59.0679"/><text fill="#000000" font-family="sans-serif" font-size="13" font-weight="bold" lengthAdjust="spacing" textLength="79" x="172.75" y="76.9649">Client-seitig</text><line style="stroke:#181818;stroke-width:1.0;" x1="31.5" x2="73.5" y1="118.4799" y2="118.4799"/><line style="stroke:#181818;stroke-width:1.0;" x1="73.5" x2="73.5" y1="118.4799" y2="131.4799"/><line style="stroke:#181818;stroke-width:1.0;" x1="32.5" x2="73.5" y1="131.4799" y2="131.4799"/><polygon fill="#181818" points="42.5,127.4799,32.5,131.4799,42.5,135.4799,38.5,131.4799" style="stroke:#181818;stroke-width:1.0;"/><text fill="#000000" font-family="sans-serif" font-size="13" lengthAdjust="spacing" textLength="101" x="38.5" y="112.6709">Eingabe erfassen</text><line style="stroke:#181818;stroke-width:1.0;" x1="31.5" x2="73.5" y1="163.186" y2="163.186"/><line style="stroke:#181818;stroke-width:1.0;" x1="73.5" x2="73.5" y1="163.186" y2="176.186"/><line style="stroke:#181818;stroke-width:1.0;" x1="32.5" x2="73.5" y1="176.186" y2="176.186"/><polygon fill="#181818" points="42.5,172.186,32.5,176.186,42.5,180.186,38.5,176.186" style="stroke:#181818;stroke-width:1.0;"/><text fill="#000000" font-family="sans-serif" font-size="13" lengthAdjust="spacing" textLength="184" x="38.5" y="157.377">Lokale Bewegung durchf&#252;hren</text><line style="stroke:#181818;stroke-width:1.0;" x1="31.5" x2="73.5" y1="207.892" y2="207.892"/><line style="stroke:#181818;stroke-width:1.0;" x1="73.5" x2="73.5" y1="207.892" y2="220.892"/><line style="stroke:#181818;stroke-width:1.0;" x1="32.5" x2="73.5" y1="220.892" y2="220.892"/><polygon fill="#181818" points="42.5,216.892,32.5,220.892,42.5,224.892,38.5,220.892" style="stroke:#181818;stroke-width:1.0;"/><text fill="#000000" font-family="sans-serif" font-size="13" lengthAdjust="spacing" textLength="98" x="38.5" y="202.083">Zustand merken</text><polygon fill="#181818" points="274.5,248.598,284.5,252.598,274.5,256.598,278.5,252.598" style="stroke:#181818;stroke-width:1.0;"/><line style="stroke:#181818;stroke-width:1.0;" x1="31.5" x2="280.5" y1="252.598" y2="252.598"/><text fill="#000000" font-family="sans-serif" font-size="13" lengthAdjust="spacing" textLength="130" x="38.5" y="246.789">Eingabedaten senden</text><rect fill="#EEEEEE" height="3" style="stroke:#EEEEEE;stroke-width:1.0;" width="429.5" x="0" y="282.451"/><line style="stroke:#000000;stroke-width:1.0;" x1="0" x2="429.5" y1="282.451" y2="282.451"/><line style="stroke:#000000;stroke-width:1.0;" x1="0" x2="429.5" y1="285.451" y2="285.451"/><rect fill="#EEEEEE" height="25.706" style="stroke:#000000;stroke-width:2.0;" width="99" x="165.25" y="270.598"/><text fill="#000000" font-family="sans-serif" font-size="13" font-weight="bold" lengthAdjust="spacing" textLength="82" x="171.25" y="288.495">Server-seitig</text><line style="stroke:#181818;stroke-width:1.0;" x1="286.5" x2="328.5" y1="330.01" y2="330.01"/><line style="stroke:#181818;stroke-width:1.0;" x1="328.5" x2="328.5" y1="330.01" y2="343.01"/><line style="stroke:#181818;stroke-width:1.0;" x1="287.5" x2="328.5" y1="343.01" y2="343.01"/><polygon fill="#181818" points="297.5,339.01,287.5,343.01,297.5,347.01,293.5,343.01" style="stroke:#181818;stroke-width:1.0;"/><text fill="#000000" font-family="sans-serif" font-size="13" lengthAdjust="spacing" textLength="129" x="293.5" y="324.201">Bewegung simulieren</text><line style="stroke:#181818;stroke-width:1.0;" x1="286.5" x2="328.5" y1="374.716" y2="374.716"/><line style="stroke:#181818;stroke-width:1.0;" x1="328.5" x2="328.5" y1="374.716" y2="387.716"/><line style="stroke:#181818;stroke-width:1.0;" x1="287.5" x2="328.5" y1="387.716" y2="387.716"/><polygon fill="#181818" points="297.5,383.716,287.5,387.716,297.5,391.716,293.5,387.716" style="stroke:#181818;stroke-width:1.0;"/><text fill="#000000" font-family="sans-serif" font-size="13" lengthAdjust="spacing" textLength="98" x="293.5" y="368.907">Zustand merken</text><rect fill="#EEEEEE" height="3" style="stroke:#EEEEEE;stroke-width:1.0;" width="429.5" x="0" y="417.5691"/><line style="stroke:#000000;stroke-width:1.0;" x1="0" x2="429.5" y1="417.5691" y2="417.5691"/><line style="stroke:#000000;stroke-width:1.0;" x1="0" x2="429.5" y1="420.5691" y2="420.5691"/><rect fill="#EEEEEE" height="25.706" style="stroke:#000000;stroke-width:2.0;" width="148" x="140.75" y="405.716"/><text fill="#000000" font-family="sans-serif" font-size="13" font-weight="bold" lengthAdjust="spacing" textLength="131" x="146.75" y="423.6131">Antwort des Servers</text><polygon fill="#181818" points="42.5,461.1281,32.5,465.1281,42.5,469.1281,38.5,465.1281" style="stroke:#181818;stroke-width:1.0;"/><line style="stroke:#181818;stroke-width:1.0;" x1="36.5" x2="285.5" y1="465.1281" y2="465.1281"/><text fill="#000000" font-family="sans-serif" font-size="13" lengthAdjust="spacing" textLength="155" x="48.5" y="459.3191">Aktuellen Zustand senden</text><rect fill="#EEEEEE" height="3" style="stroke:#EEEEEE;stroke-width:1.0;" width="429.5" x="0" y="494.9811"/><line style="stroke:#000000;stroke-width:1.0;" x1="0" x2="429.5" y1="494.9811" y2="494.9811"/><line style="stroke:#000000;stroke-width:1.0;" x1="0" x2="429.5" y1="497.9811" y2="497.9811"/><rect fill="#EEEEEE" height="25.706" style="stroke:#000000;stroke-width:2.0;" width="83" x="173.25" y="483.1281"/><text fill="#000000" font-family="sans-serif" font-size="13" font-weight="bold" lengthAdjust="spacing" textLength="66" x="179.25" y="501.0251">Korrektur</text><line style="stroke:#181818;stroke-width:1.0;" x1="31.5" x2="73.5" y1="542.5401" y2="542.5401"/><line style="stroke:#181818;stroke-width:1.0;" x1="73.5" x2="73.5" y1="542.5401" y2="555.5401"/><line style="stroke:#181818;stroke-width:1.0;" x1="32.5" x2="73.5" y1="555.5401" y2="555.5401"/><polygon fill="#181818" points="42.5,551.5401,32.5,555.5401,42.5,559.5401,38.5,555.5401" style="stroke:#181818;stroke-width:1.0;"/><text fill="#000000" font-family="sans-serif" font-size="13" lengthAdjust="spacing" textLength="241" x="38.5" y="536.7311">Zust&#228;nde vergleichen und ggf. anpassen</text><!--SRC=[RP11Zi8m34NtFOKl00T0AX8WLh1ZnoxJk6dKu5QECrneZZ4xBeQh59GPklr-_dxoQ5XyuqT30eVWaQGQY-Y2_8rSLNKzJrSHlNW7TLtb05RRURI1eoTdlX2GMnCZqW9o7deJ4FPuHvV8WKtSTEtZj-D5_9gY6B9mG-uLA8XizhvfZI21thGJfhfvNkZce5nzIqH_IreyANnI_nMqUqTo7rZ0Ofon-FV2It_NIy8GrEpLKXYU1cPKW9UVEMqyVfG6BNK1VTDfJz8Evzer61hpZvy0]--></g></svg>